<svg id="Layer_1" xmlns="http://www.w3.org/2000/svg" viewBox="0 0 38.4 28.8">
    <path id="CODE" d="M37.9 15.7l-7.2 7.2c-.7.7-1.9.6-2.5-.1-.6-.7-.6-1.7 0-2.4l5.9-5.9-5.9-5.9c-.7-.7-.7-1.8-.1-2.5s1.8-.7 2.5-.1l.1.1 7.1 7.1c.7.6.8 1.8.2 2.5-.1-.1-.1 0-.1 0zM16.1 27.6c-.3.9-1.4 1.4-2.3 1.1s-1.4-1.4-1.1-2.3l9.6-25.2c.3-.9 1.4-1.4 2.3-1.1s1.4 1.4 1.1 2.3l-9.6 25.2zM10.3 8.5l-5.9 5.9 5.9 5.9c.7.7.6 1.9-.1 2.5-.7.6-1.7.6-2.4 0L.6 15.6c-.7-.7-.7-1.8 0-2.5l.1-.1 7.1-7.1c.7-.7 1.8-.8 2.5-.1.7.7.8 1.8.1 2.5-.1.1-.1.2-.1.2z"/>
</svg>
