<svg xmlns="http://www.w3.org/2000/svg" width="38.41" height="28.81" viewBox="0 0 38.406 28.813">
    <defs>
        <style>
            .cls-1{fill:#454546;fill-rule:evenodd}
        </style>
    </defs>
    <path id="CODE" class="cls-1" d="M38.678 16.289l-7.2 7.2a1.8 1.8 0 0 1-2.542-2.541l5.936-5.937-5.919-5.92A1.8 1.8 0 1 1 31.5 6.548l7.1 7.1a1.785 1.785 0 0 1 .078 2.641zM16.9 28.21a1.8 1.8 0 1 1-3.374-1.256l9.587-25.165a1.8 1.8 0 1 1 3.374 1.257zM11.079 9.091l-5.918 5.918 5.939 5.937a1.8 1.8 0 0 1-2.542 2.541l-7.2-7.2a1.784 1.784 0 0 1 .084-2.648l7.1-7.1a1.8 1.8 0 1 1 2.535 2.551z" transform="translate(-.813 -.594)"/>
</svg>
