<svg id="Layer_1" xmlns="http://www.w3.org/2000/svg" viewBox="0 0 19.4 15.8">
    <path id="twitter" d="M13.2 0c1.2-.1 2.3.4 3.2 1.3.7-.1 1.4-.3 2-.7l.5-.3c-.2.7-.7 1.4-1.3 1.9-.1.1-.3.2-.4.3.8-.1 1.5-.3 2.3-.6-.4.6-.8 1.1-1.4 1.6l-.6.5c0 .9 0 1.7-.2 2.6-1 4.5-3.6 7.5-7.8 8.8-1.8.5-3.8.6-5.6.2-.8-.2-1.6-.4-2.3-.8-.4-.2-.8-.4-1.1-.6L0 14c.4.1.9.1 1.3 0 .4 0 .7 0 1.1-.1.8-.2 1.7-.5 2.4-.9.4-.2.8-.4 1.1-.7-.4 0-.8-.1-1.2-.2-1.2-.4-2.1-1.3-2.5-2.6.6.1 1.2.1 1.8-.1-.5 0-1-.1-1.4-.4C1.4 8.3.7 7 .8 5.6l.4.2c.2.1.5.1.8.2.2.1.4.1.5 0-.2-.2-.5-.3-.7-.6C.9 4.4.6 3.1.9 1.8c.1-.4.2-.7.4-1 .2.1.3.2.4.4.4.4.8.8 1.2 1.1 1.4 1.2 3.1 2 4.9 2.4.6.1 1.2.2 1.8.2-.2-.6-.2-1.3 0-1.9.3-1.2 1.1-2.2 2.3-2.7l.9-.3h.4z"/>
</svg>
