<svg xmlns="http://www.w3.org/2000/svg" width="35.22" height="20.38" viewBox="0 0 35.219 20.375">
    <defs>
        <style>
            .cls-1{fill:#454546;fill-rule:evenodd}
        </style>
    </defs>
    <path id="VIEW" class="cls-1" d="M35.549 10.567v.135a1.361 1.361 0 0 1-.368.741c-.369.448-.773.868-1.178 1.281a30.459 30.459 0 0 1-7.466 5.654 19.944 19.944 0 0 1-5.594 2.02 16.249 16.249 0 0 1-6.428-.091 24.259 24.259 0 0 1-9.965-5.183 27.093 27.093 0 0 1-3.832-3.676 1.4 1.4 0 0 1 0-1.9c.369-.448.772-.865 1.182-1.277a30.419 30.419 0 0 1 7.462-5.654A19.927 19.927 0 0 1 14.955.6a16.247 16.247 0 0 1 6.428.091 24.262 24.262 0 0 1 9.965 5.183 27.118 27.118 0 0 1 3.817 3.681 1.362 1.362 0 0 1 .368.741v.202c0 .023.017.047.016.069zM17.95 3.625a6.6 6.6 0 1 0 6.6 6.6 6.6 6.6 0 0 0-6.6-6.6zm0 9.9a3.3 3.3 0 1 1 3.3-3.3 3.3 3.3 0 0 1-3.3 3.3z" transform="translate(-.344 -.313)"/>
</svg>
