<svg id="Layer_1" xmlns="http://www.w3.org/2000/svg" viewBox="0 0 35.2 20.4">
    <path id="VIEW" d="M35.2 10.3v.1c0 .3-.2.5-.4.7-.4.4-.8.9-1.2 1.3-2.2 2.3-4.7 4.2-7.5 5.7-1.8.9-3.6 1.6-5.6 2-2.1.4-4.3.4-6.4-.1-3.7-.9-7.1-2.7-10-5.2-1.4-1.1-2.7-2.3-3.8-3.7-.5-.5-.5-1.4 0-1.9.4-.4.8-.8 1.3-1.2C3.7 5.7 6.3 3.8 9 2.3c1.8-.9 3.6-1.6 5.6-2 2.1-.4 4.3-.4 6.4.1 3.7.9 7.1 2.7 10 5.2 1.4 1.1 2.7 2.3 3.8 3.7.2.2.3.5.4.7v.3c0-.1 0-.1 0 0zm-17.6-7c-3.6 0-6.6 3-6.6 6.6s3 6.6 6.6 6.6 6.6-3 6.6-6.6-2.9-6.6-6.6-6.6zm0 9.9c-1.8 0-3.3-1.5-3.3-3.3 0-1.8 1.5-3.3 3.3-3.3s3.3 1.5 3.3 3.3c0 1.8-1.5 3.3-3.3 3.3z"/>
</svg>
