<svg id="Layer_1" xmlns="http://www.w3.org/2000/svg" viewBox="0 0 25 16">
    <path id="behance" d="M16.4 1.6h6.2v1.6h-6.2V1.6zM25 11h-8.1c.1 2 1 2.7 2.8 2.7 1.2 0 2.2-.4 2.4-1.1h2.5c-.9 2.7-2.5 3.4-5 3.4-3.5 0-5.7-2.4-5.7-5.9-.2-3.1 2.2-5.8 5.3-6h.4c3.7 0 5.6 3.4 5.4 6.9zm-8.1-2.3h5c-.3-1.6-1-2.2-2.5-2.2-1.3-.1-2.4.8-2.5 2.1v.1zM13 11.2c0 3.2-2.7 4.5-5.5 4.5H0V0h7.3c3 0 4.9 1.1 4.9 4 0 1.4-.8 2.7-2.1 3.3 1.8.4 3 2 2.9 3.9zM6.3 2.6H3.1v3.6h3.4c1 .2 1.9-.5 2.1-1.5v-.4C8.7 3 7.5 2.6 6.3 2.6zm.5 6H3.1v4.3h3.6c1.3 0 2.5-.4 2.5-2.1.1-1.5-.9-2.2-2.4-2.2z"/>
</svg>
