<svg id="Layer_1" xmlns="http://www.w3.org/2000/svg" viewBox="0 0 22.4 19.3">
    <path id="google_plus" d="M18.9 4.8v3.4h-1.4V4.8H14V3.4h3.5V0h1.4v3.4h3.5v1.4h-3.5zM9.2 1.4c1.2.6 2 1.9 2 3.3-.1 1.2-.7 2.3-1.7 2.9-1 .7-1.1 1-1.1 1.7 0 .5 1 1.4 1.6 1.8 1.3.8 2.1 2.2 2 3.8 0 2.1-2 4.4-5.8 4.4-3.3 0-6.1-1.6-6.1-3.7s2.6-4.2 5.9-4.2h1c-.5-.4-.8-1-.8-1.6 0-.4.1-.8.3-1.1H6C3.5 8.8 1.5 7 1.4 4.6v-.2C1.4 2.1 3.8 0 6.5 0h5.9l-1.3 1.4H9.2zM6.5 11.9c-2.3 0-4.3 1.4-4.3 3 0 1.7 1.6 2.9 3.9 2.9 3.2 0 4.3-1.2 4.3-2.8 0-.2 0-.4-.1-.6-.3-1-1.1-1.4-2.4-2.3-.4-.1-.9-.2-1.4-.2zm2.6-7.2c-.3-2-1.8-3.5-3.3-3.6S3.2 2.5 3.5 4.5s1.7 3.6 3.2 3.6 2.6-1.5 2.4-3.4z"/>
</svg>
