<svg xmlns="http://www.w3.org/2000/svg" width="32" height="32" viewBox="0 0 32 32">
    <defs>
        <style>
            .cls-1{fill:#454546;fill-rule:evenodd}
        </style>
    </defs>
    <path id="BRIGHTNESS_HIGH" data-name="BRIGHTNESS / HIGH" class="cls-1" d="M30.5 17.5h-4a1.5 1.5 0 1 1 0-3h4a1.5 1.5 0 0 1 0 3zM28.061 6.061l-2.723 2.722-.778.778A1.479 1.479 0 0 1 23.5 10 1.5 1.5 0 0 1 22 8.5a1.478 1.478 0 0 1 .444-1.056l.778-.778 2.722-2.722a1.5 1.5 0 0 1 2.121 2.122zM16 22a5.994 5.994 0 0 1-5.218-3.045l-.592-1.479A6 6 0 1 1 16 22zm0-9a3 3 0 1 0 3 3 3 3 0 0 0-3-3zm0-6a1.5 1.5 0 0 1-1.5-1.5v-4a1.5 1.5 0 0 1 3 0v4A1.5 1.5 0 0 1 16 7zM9.561 24.561l-.778.778-2.722 2.721a1.5 1.5 0 1 1-2.121-2.121l2.722-2.722.778-.778a1.5 1.5 0 0 1 2.121 2.122zM8.5 10a1.479 1.479 0 0 1-1.056-.444l-.782-.773-2.723-2.722a1.5 1.5 0 1 1 2.122-2.122l2.722 2.722.778.778A1.478 1.478 0 0 1 10 8.5 1.5 1.5 0 0 1 8.5 10zm-3 4.5a1.5 1.5 0 1 1 0 3h-4a1.5 1.5 0 0 1 0-3h4zM16 25a1.5 1.5 0 0 1 1.5 1.5v4a1.5 1.5 0 0 1-3 0v-4A1.5 1.5 0 0 1 16 25zm7.5-3a1.494 1.494 0 0 1 1.061.439l.778.778 2.722 2.722a1.5 1.5 0 1 1-2.121 2.121l-2.722-2.722-.778-.778A1.5 1.5 0 0 1 23.5 22z"/>
</svg>
