<svg id="Layer_1" xmlns="http://www.w3.org/2000/svg" viewBox="0 0 32 32">
    <path id="BRIGHTNESS_HIGH" d="M30.5 17.5h-4c-.8 0-1.5-.7-1.5-1.5s.7-1.5 1.5-1.5h4c.8 0 1.5.7 1.5 1.5s-.7 1.5-1.5 1.5zM28.1 6.1l-2.7 2.7-.8.8c-.3.3-.7.4-1.1.4-.8 0-1.5-.7-1.5-1.5 0-.4.2-.8.4-1.1l.8-.8 2.7-2.7c.6-.6 1.5-.6 2.1 0 .7.6.7 1.6.1 2.2zM16 22c-2.2 0-4.2-1.2-5.2-3l-.6-1.5c-.8-3.2 1.1-6.5 4.3-7.3 3.2-.8 6.5 1.1 7.3 4.3.8 3.2-1.1 6.5-4.3 7.3-.5.1-1 .2-1.5.2zm0-9c-1.7 0-3 1.3-3 3s1.3 3 3 3 3-1.3 3-3-1.3-3-3-3zm0-6c-.8 0-1.5-.7-1.5-1.5v-4c0-.8.7-1.5 1.5-1.5s1.5.7 1.5 1.5v4c0 .8-.7 1.5-1.5 1.5zM9.6 24.6l-.8.8-2.7 2.7c-.6.6-1.5.6-2.1 0-.6-.6-.6-1.5 0-2.1l2.7-2.7.8-.8c.6-.6 1.5-.6 2.1 0s.5 1.5 0 2.1zM8.5 10c-.4 0-.8-.2-1.1-.4l-.7-.8-2.8-2.7c-.6-.6-.6-1.5 0-2.1S5.4 3.4 6 4l2.7 2.7.8.8c.3.2.5.6.5 1 0 .8-.7 1.5-1.5 1.5zm-3 4.5c.8 0 1.5.7 1.5 1.5s-.7 1.5-1.5 1.5h-4C.7 17.5 0 16.8 0 16s.7-1.5 1.5-1.5h4zM16 25c.8 0 1.5.7 1.5 1.5v4c0 .8-.7 1.5-1.5 1.5s-1.5-.7-1.5-1.5v-4c0-.8.7-1.5 1.5-1.5zm7.5-3c.4 0 .8.2 1.1.4l.8.8 2.7 2.7c.6.6.6 1.5 0 2.1s-1.5.6-2.1 0l-2.7-2.7-.8-.8c-.6-.6-.6-1.5 0-2.1.2-.2.6-.4 1-.4z"/>
</svg>
