<svg xmlns="http://www.w3.org/2000/svg" width="24.97" height="16" viewBox="0 0 24.969 16">
    <defs>
        <style>
            .cls-1{fill:#fff;fill-rule:evenodd}
        </style>
    </defs>
    <path id="behance" class="cls-1" d="M17.086 2.062H23.3V3.65h-6.214V2.062zm8.576 9.406h-8.1c.086 1.964 1.041 2.688 2.755 2.688 1.238 0 2.238-.395 2.433-1.094h2.468c-.867 2.661-2.468 3.428-5.009 3.428-3.538 0-5.73-2.443-5.73-5.932A5.644 5.644 0 0 1 20.215 4.6c3.819 0 5.664 3.4 5.448 6.868zm-8.1-2.306h5.014c-.283-1.57-.957-2.226-2.454-2.226a2.315 2.315 0 0 0-2.554 2.226zm-3.892 2.506c0 3.163-2.671 4.518-5.471 4.518H.7V.51h7.29c2.951 0 4.948 1.057 4.948 3.958a3.418 3.418 0 0 1-2.107 3.252 3.8 3.8 0 0 1 2.845 3.948zM7 3.147H3.812v3.642h3.45a1.8 1.8 0 0 0 2.084-1.852c0-1.484-1.129-1.79-2.346-1.79zm.52 5.977H3.812V13.4h3.645c1.346 0 2.517-.435 2.517-2.051 0-1.592-.997-2.226-2.452-2.226z" transform="translate(-.688 -.5)"/>
</svg>
