<svg xmlns="http://www.w3.org/2000/svg" width="32" height="32" viewBox="0 0 32 32">
  <metadata><?xpacket begin="﻿" id="W5M0MpCehiHzreSzNTczkc9d"?>
<x:xmpmeta xmlns:x="adobe:ns:meta/" x:xmptk="Adobe XMP Core 5.6-c138 79.159824, 2016/09/14-01:09:01        ">
   <rdf:RDF xmlns:rdf="http://www.w3.org/1999/02/22-rdf-syntax-ns#">
      <rdf:Description rdf:about=""/>
   </rdf:RDF>
</x:xmpmeta>
                                                                                                    
                                                                                                    
                                                                                                    
                                                                                                    
                                                                                                    
                                                                                                    
                                                                                                    
                                                                                                    
                                                                                                    
                                                                                                    
                                                                                                    
                                                                                                    
                                                                                                    
                                                                                                    
                                                                                                    
                                                                                                    
                                                                                                    
                                                                                                    
                                                                                                    
                                                                                                    
                           
<?xpacket end="w"?></metadata>
<defs>
    <style>
      .cls-1 {
        fill: #454546;
        fill-rule: evenodd;
      }
    </style>
  </defs>
  <path id="BRIGHTNESS_HIGH" data-name="BRIGHTNESS / HIGH" class="cls-1" d="M30.5,17.5h-4a1.5,1.5,0,1,1,0-3h4A1.5,1.5,0,0,1,30.5,17.5ZM28.061,6.061L25.338,8.783l-0.778.778h0l0,0A1.479,1.479,0,0,1,23.5,10,1.5,1.5,0,0,1,22,8.5a1.478,1.478,0,0,1,.444-1.056l0,0h0l0.778-.778,2.722-2.722h0a1.5,1.5,0,0,1,2.121,2.122h0ZM16,22a5.994,5.994,0,0,1-5.218-3.045l-0.592-1.479A6,6,0,1,1,16,22Zm0-9a3,3,0,1,0,3,3A3,3,0,0,0,16,13Zm0-6a1.5,1.5,0,0,1-1.5-1.5h0v-4a1.5,1.5,0,0,1,3,0v4h0A1.5,1.5,0,0,1,16,7ZM9.561,24.561h0l-0.778.778L6.061,28.06h0a1.5,1.5,0,1,1-2.121-2.121h0l2.722-2.722,0.778-.778h0a1.5,1.5,0,0,1,2.121,2.122h0ZM8.5,10a1.479,1.479,0,0,1-1.056-.444l0,0h0L6.662,8.783,3.939,6.061h0A1.5,1.5,0,1,1,6.061,3.939h0L8.783,6.661,9.561,7.439h0l0,0A1.478,1.478,0,0,1,10,8.5,1.5,1.5,0,0,1,8.5,10Zm-3,4.5a1.5,1.5,0,1,1,0,3h-4a1.5,1.5,0,0,1,0-3h4ZM16,25a1.5,1.5,0,0,1,1.5,1.5h0v4a1.5,1.5,0,0,1-3,0v-4h0A1.5,1.5,0,0,1,16,25Zm7.5-3a1.494,1.494,0,0,1,1.061.439h0l0.778,0.778,2.722,2.722h0a1.5,1.5,0,1,1-2.121,2.121h0l-2.722-2.722-0.778-.778h0A1.5,1.5,0,0,1,23.5,22Z"/>
</svg>
