<svg xmlns="http://www.w3.org/2000/svg" width="38.406" height="28.813" viewBox="0 0 38.406 28.813">
  <metadata><?xpacket begin="﻿" id="W5M0MpCehiHzreSzNTczkc9d"?>
<x:xmpmeta xmlns:x="adobe:ns:meta/" x:xmptk="Adobe XMP Core 5.6-c138 79.159824, 2016/09/14-01:09:01        ">
   <rdf:RDF xmlns:rdf="http://www.w3.org/1999/02/22-rdf-syntax-ns#">
      <rdf:Description rdf:about=""/>
   </rdf:RDF>
</x:xmpmeta>
                                                                                                    
                                                                                                    
                                                                                                    
                                                                                                    
                                                                                                    
                                                                                                    
                                                                                                    
                                                                                                    
                                                                                                    
                                                                                                    
                                                                                                    
                                                                                                    
                                                                                                    
                                                                                                    
                                                                                                    
                                                                                                    
                                                                                                    
                                                                                                    
                                                                                                    
                                                                                                    
                           
<?xpacket end="w"?></metadata>
<defs>
    <style>
      .cls-1 {
        fill: #454546;
        fill-rule: evenodd;
      }
    </style>
  </defs>
  <path id="CODE" class="cls-1" d="M38.678,16.289l0,0-7.2,7.2,0,0a1.8,1.8,0,0,1-2.542-2.541l0,0,5.936-5.937L28.953,9.091h0A1.8,1.8,0,1,1,31.5,6.548l0,0,7.1,7.1A1.785,1.785,0,0,1,38.678,16.289ZM16.9,28.21a1.8,1.8,0,1,1-3.374-1.256L23.113,1.789a1.8,1.8,0,1,1,3.374,1.257ZM11.079,9.091L5.161,15.009,11.1,20.946l0,0a1.8,1.8,0,0,1-2.542,2.541l0,0-7.2-7.2,0,0a1.784,1.784,0,0,1,.084-2.648l7.1-7.1,0,0A1.8,1.8,0,1,1,11.077,9.09h0Z" transform="translate(-0.813 -0.594)"/>
</svg>
