<svg xmlns="http://www.w3.org/2000/svg" width="35.219" height="20.375" viewBox="0 0 35.219 20.375">
  <metadata><?xpacket begin="﻿" id="W5M0MpCehiHzreSzNTczkc9d"?>
<x:xmpmeta xmlns:x="adobe:ns:meta/" x:xmptk="Adobe XMP Core 5.6-c138 79.159824, 2016/09/14-01:09:01        ">
   <rdf:RDF xmlns:rdf="http://www.w3.org/1999/02/22-rdf-syntax-ns#">
      <rdf:Description rdf:about=""/>
   </rdf:RDF>
</x:xmpmeta>
                                                                                                    
                                                                                                    
                                                                                                    
                                                                                                    
                                                                                                    
                                                                                                    
                                                                                                    
                                                                                                    
                                                                                                    
                                                                                                    
                                                                                                    
                                                                                                    
                                                                                                    
                                                                                                    
                                                                                                    
                                                                                                    
                                                                                                    
                                                                                                    
                                                                                                    
                                                                                                    
                           
<?xpacket end="w"?></metadata>
<defs>
    <style>
      .cls-1 {
        fill: #454546;
        fill-rule: evenodd;
      }
    </style>
  </defs>
  <path id="VIEW" class="cls-1" d="M35.549,10.567c0,0.015,0,.03,0,0.044l0,0.022c0,0.011,0,.022,0,0.032s0,0.025,0,.037a0.016,0.016,0,0,0,0,0,1.361,1.361,0,0,1-.368.741c-0.369.448-.773,0.868-1.178,1.281a30.459,30.459,0,0,1-7.466,5.654,19.944,19.944,0,0,1-5.594,2.02,16.249,16.249,0,0,1-6.428-.091,24.259,24.259,0,0,1-9.965-5.183A27.093,27.093,0,0,1,.718,11.448a1.4,1.4,0,0,1,0-1.9C1.087,9.1,1.49,8.683,1.9,8.271A30.419,30.419,0,0,1,9.362,2.617,19.927,19.927,0,0,1,14.955.6a16.247,16.247,0,0,1,6.428.091,24.262,24.262,0,0,1,9.965,5.183,27.118,27.118,0,0,1,3.817,3.681,1.362,1.362,0,0,1,.368.741,0.023,0.023,0,0,0,0,0c0,0.012,0,.024,0,0.037s0,0.021,0,.032l0,0.022c0,0.015,0,.029,0,0.044s0,0.044,0,.067S35.55,10.545,35.549,10.567ZM17.95,3.625a6.6,6.6,0,1,0,6.6,6.6A6.6,6.6,0,0,0,17.95,3.625Zm0,9.9a3.3,3.3,0,1,1,3.3-3.3A3.3,3.3,0,0,1,17.95,13.525Z" transform="translate(-0.344 -0.313)"/>
</svg>
