<svg xmlns="http://www.w3.org/2000/svg" width="32" height="26" viewBox="0 0 32 26">
  <metadata><?xpacket begin="﻿" id="W5M0MpCehiHzreSzNTczkc9d"?>
<x:xmpmeta xmlns:x="adobe:ns:meta/" x:xmptk="Adobe XMP Core 5.6-c138 79.159824, 2016/09/14-01:09:01        ">
   <rdf:RDF xmlns:rdf="http://www.w3.org/1999/02/22-rdf-syntax-ns#">
      <rdf:Description rdf:about=""/>
   </rdf:RDF>
</x:xmpmeta>
                                                                                                    
                                                                                                    
                                                                                                    
                                                                                                    
                                                                                                    
                                                                                                    
                                                                                                    
                                                                                                    
                                                                                                    
                                                                                                    
                                                                                                    
                                                                                                    
                                                                                                    
                                                                                                    
                                                                                                    
                                                                                                    
                                                                                                    
                                                                                                    
                                                                                                    
                                                                                                    
                           
<?xpacket end="w"?></metadata>
<defs>
    <style>
      .cls-1 {
        fill: #454546;
        fill-rule: evenodd;
      }
    </style>
  </defs>
  <path id="CAMERA" class="cls-1" d="M30.5,26H1.5A1.5,1.5,0,0,1,0,24.5V4.5A1.5,1.5,0,0,1,1.5,3H7.906l2.4-2.4A1.493,1.493,0,0,1,11.5,0h9a1.493,1.493,0,0,1,1.073.455h0L24.121,3H30.5A1.5,1.5,0,0,1,32,4.5v20A1.5,1.5,0,0,1,30.5,26ZM16,5a9,9,0,1,0,9,9A9,9,0,0,0,16,5Zm0,15a6,6,0,1,1,6-6A6,6,0,0,1,16,20Z"/>
</svg>
