<svg xmlns="http://www.w3.org/2000/svg" width="24.969" height="16" viewBox="0 0 24.969 16">
  <metadata><?xpacket begin="﻿" id="W5M0MpCehiHzreSzNTczkc9d"?>
<x:xmpmeta xmlns:x="adobe:ns:meta/" x:xmptk="Adobe XMP Core 5.6-c138 79.159824, 2016/09/14-01:09:01        ">
   <rdf:RDF xmlns:rdf="http://www.w3.org/1999/02/22-rdf-syntax-ns#">
      <rdf:Description rdf:about=""/>
   </rdf:RDF>
</x:xmpmeta>
                                                                                                    
                                                                                                    
                                                                                                    
                                                                                                    
                                                                                                    
                                                                                                    
                                                                                                    
                                                                                                    
                                                                                                    
                                                                                                    
                                                                                                    
                                                                                                    
                                                                                                    
                                                                                                    
                                                                                                    
                                                                                                    
                                                                                                    
                                                                                                    
                                                                                                    
                                                                                                    
                           
<?xpacket end="w"?></metadata>
<defs>
    <style>
      .cls-1 {
        fill: #fff;
        fill-rule: evenodd;
      }
    </style>
  </defs>
  <path id="behance" class="cls-1" d="M17.086,2.062H23.3V3.65H17.086V2.062Zm8.576,9.406h-8.1c0.086,1.964,1.041,2.688,2.755,2.688,1.238,0,2.238-.395,2.433-1.094h2.468c-0.867,2.661-2.468,3.428-5.009,3.428-3.538,0-5.73-2.443-5.73-5.932A5.644,5.644,0,0,1,20.215,4.6C24.034,4.6,25.879,8,25.663,11.468Zm-8.1-2.306h5.014c-0.283-1.57-.957-2.226-2.454-2.226A2.315,2.315,0,0,0,17.568,9.162Zm-3.892,2.506c0,3.163-2.671,4.518-5.471,4.518H0.7V0.51H7.99c2.951,0,4.948,1.057,4.948,3.958a3.418,3.418,0,0,1-2.107,3.252A3.8,3.8,0,0,1,13.676,11.668ZM7,3.147H3.812V6.789h3.45A1.8,1.8,0,0,0,9.346,4.937C9.346,3.453,8.217,3.147,7,3.147Zm0.52,5.977H3.812V13.4H7.457c1.346,0,2.517-.435,2.517-2.051C9.974,9.757,8.977,9.123,7.522,9.123Z" transform="translate(-0.688 -0.5)"/>
</svg>
